<svg width="136" height="87" viewBox="0 0 136 87" fill="none" xmlns="http://www.w3.org/2000/svg">
<g opacity="0.8" clip-path="url(#clip0_2355_2274)">
<path d="M3.88043 16.3901C3.88043 17.4991 3.04891 18.3309 1.94022 18.3309C0.831522 18.3309 0 17.4991 0 16.3901C0 15.281 0.831522 14.4492 1.94022 14.4492C3.04891 14.4492 3.88043 15.3734 3.88043 16.3901Z" fill="#FFCF2D"/>
<path d="M20.4185 16.3901C20.4185 17.4991 19.587 18.3309 18.4783 18.3309C17.3696 18.3309 16.5381 17.4991 16.5381 16.3901C16.5381 15.281 17.3696 14.4492 18.4783 14.4492C19.4946 14.4492 20.4185 15.3734 20.4185 16.3901Z" fill="#FFCF2D"/>
<path d="M36.8643 16.3901C36.8643 17.4991 36.0328 18.3309 34.9241 18.3309C33.8154 18.3309 32.9839 17.4991 32.9839 16.3901C32.9839 15.281 33.8154 14.4492 34.9241 14.4492C36.0328 14.4492 36.8643 15.3734 36.8643 16.3901Z" fill="#FFCF2D"/>
<path d="M53.4024 16.3901C53.4024 17.4991 52.5709 18.3309 51.4622 18.3309C50.3535 18.3309 49.522 17.4991 49.522 16.3901C49.522 15.281 50.3535 14.4492 51.4622 14.4492C52.5709 14.4492 53.4024 15.3734 53.4024 16.3901Z" fill="#FFCF2D"/>
<path d="M69.94 16.3901C69.94 17.4991 69.1085 18.3309 67.9998 18.3309C66.8911 18.3309 66.0596 17.4991 66.0596 16.3901C66.0596 15.281 66.8911 14.4492 67.9998 14.4492C69.0161 14.4492 69.94 15.3734 69.94 16.3901Z" fill="#FFCF2D"/>
<path d="M86.4781 16.3901C86.4781 17.4991 85.6466 18.3309 84.5379 18.3309C83.4292 18.3309 82.5977 17.4991 82.5977 16.3901C82.5977 15.281 83.4292 14.4492 84.5379 14.4492C85.6466 14.4492 86.4781 15.3734 86.4781 16.3901Z" fill="#FFCF2D"/>
<path d="M102.924 16.3901C102.924 17.4991 102.092 18.3309 100.984 18.3309C99.875 18.3309 99.0435 17.4991 99.0435 16.3901C99.0435 15.281 99.875 14.4492 100.984 14.4492C102.092 14.4492 102.924 15.3734 102.924 16.3901Z" fill="#FFCF2D"/>
<path d="M119.462 16.3901C119.462 17.4991 118.63 18.3309 117.522 18.3309C116.413 18.3309 115.582 17.4991 115.582 16.3901C115.582 15.281 116.413 14.4492 117.522 14.4492C118.63 14.4492 119.462 15.3734 119.462 16.3901Z" fill="#FFCF2D"/>
<path d="M136 16.3901C136 17.4991 135.169 18.3309 134.06 18.3309C132.951 18.3309 132.12 17.4991 132.12 16.3901C132.12 15.281 132.951 14.4492 134.06 14.4492C135.076 14.4492 136 15.3734 136 16.3901Z" fill="#FFCF2D"/>
<path d="M3.88043 30.1606C3.88043 31.2696 3.04891 32.1014 1.94022 32.1014C0.831522 32.1014 0 31.2696 0 30.1606C0 29.0515 0.831522 28.2197 1.94022 28.2197C3.04891 28.2197 3.88043 29.0515 3.88043 30.1606Z" fill="#FFCF2D"/>
<path d="M20.4185 30.1606C20.4185 31.2696 19.587 32.1014 18.4783 32.1014C17.3696 32.1014 16.5381 31.2696 16.5381 30.1606C16.5381 29.0515 17.3696 28.2197 18.4783 28.2197C19.4946 28.2197 20.4185 29.0515 20.4185 30.1606Z" fill="#FFCF2D"/>
<path d="M36.8643 30.1606C36.8643 31.2696 36.0328 32.1014 34.9241 32.1014C33.8154 32.1014 32.9839 31.2696 32.9839 30.1606C32.9839 29.0515 33.8154 28.2197 34.9241 28.2197C36.0328 28.2197 36.8643 29.0515 36.8643 30.1606Z" fill="#FFCF2D"/>
<path d="M53.4024 30.1606C53.4024 31.2696 52.5709 32.1014 51.4622 32.1014C50.3535 32.1014 49.522 31.2696 49.522 30.1606C49.522 29.0515 50.3535 28.2197 51.4622 28.2197C52.5709 28.2197 53.4024 29.0515 53.4024 30.1606Z" fill="#FFCF2D"/>
<path d="M69.94 30.1606C69.94 31.2696 69.1085 32.1014 67.9998 32.1014C66.8911 32.1014 66.0596 31.2696 66.0596 30.1606C66.0596 29.0515 66.8911 28.2197 67.9998 28.2197C69.0161 28.2197 69.94 29.0515 69.94 30.1606Z" fill="#FFCF2D"/>
<path d="M86.4781 30.1606C86.4781 31.2696 85.6466 32.1014 84.5379 32.1014C83.4292 32.1014 82.5977 31.2696 82.5977 30.1606C82.5977 29.0515 83.4292 28.2197 84.5379 28.2197C85.6466 28.2197 86.4781 29.0515 86.4781 30.1606Z" fill="#FFCF2D"/>
<path d="M102.924 30.1606C102.924 31.2696 102.092 32.1014 100.984 32.1014C99.875 32.1014 99.0435 31.2696 99.0435 30.1606C99.0435 29.0515 99.875 28.2197 100.984 28.2197C102.092 28.2197 102.924 29.0515 102.924 30.1606Z" fill="#FFCF2D"/>
<path d="M119.462 30.1606C119.462 31.2696 118.63 32.1014 117.522 32.1014C116.413 32.1014 115.582 31.2696 115.582 30.1606C115.582 29.0515 116.413 28.2197 117.522 28.2197C118.63 28.2197 119.462 29.0515 119.462 30.1606Z" fill="#FFCF2D"/>
<path d="M136 30.1606C136 31.2696 135.169 32.1014 134.06 32.1014C132.951 32.1014 132.12 31.2696 132.12 30.1606C132.12 29.0515 132.951 28.2197 134.06 28.2197C135.076 28.2197 136 29.0515 136 30.1606Z" fill="#FFCF2D"/>
<path d="M3.88044 2.71136C3.88044 3.82042 3.04891 4.65221 1.94022 4.65221C0.831522 4.65221 0 3.72799 0 2.71136C0 1.6023 0.831522 0.770508 1.94022 0.770508C3.04891 0.770508 3.88044 1.6023 3.88044 2.71136Z" fill="#FFCF2D"/>
<path d="M20.4185 2.71136C20.4185 3.82042 19.587 4.65221 18.4783 4.65221C17.3696 4.65221 16.5381 3.82042 16.5381 2.71136C16.5381 1.6023 17.3696 0.770508 18.4783 0.770508C19.4946 0.770508 20.4185 1.6023 20.4185 2.71136Z" fill="#FFCF2D"/>
<path d="M36.8643 2.71136C36.8643 3.82042 36.0328 4.65221 34.9241 4.65221C33.8154 4.65221 32.9839 3.82042 32.9839 2.71136C32.9839 1.6023 33.8154 0.770508 34.9241 0.770508C36.0328 0.770508 36.8643 1.6023 36.8643 2.71136Z" fill="#FFCF2D"/>
<path d="M53.4024 2.71136C53.4024 3.82042 52.5709 4.65221 51.4622 4.65221C50.3535 4.65221 49.522 3.82042 49.522 2.71136C49.522 1.6023 50.3535 0.770508 51.4622 0.770508C52.5709 0.770508 53.4024 1.6023 53.4024 2.71136Z" fill="#FFCF2D"/>
<path d="M69.94 2.71136C69.94 3.82042 69.1085 4.65221 67.9998 4.65221C66.8911 4.65221 66.0596 3.82042 66.0596 2.71136C66.0596 1.6023 66.8911 0.770508 67.9998 0.770508C69.0161 0.770508 69.94 1.6023 69.94 2.71136Z" fill="#FFCF2D"/>
<path d="M86.4781 2.71136C86.4781 3.82042 85.6466 4.65221 84.5379 4.65221C83.4292 4.65221 82.5977 3.82042 82.5977 2.71136C82.5977 1.6023 83.4292 0.770508 84.5379 0.770508C85.6466 0.770508 86.4781 1.6023 86.4781 2.71136Z" fill="#FFCF2D"/>
<path d="M102.924 2.71136C102.924 3.82042 102.092 4.65221 100.984 4.65221C99.875 4.65221 99.0435 3.82042 99.0435 2.71136C99.0435 1.6023 99.875 0.770508 100.984 0.770508C102.092 0.770508 102.924 1.6023 102.924 2.71136Z" fill="#FFCF2D"/>
<path d="M119.462 2.71136C119.462 3.82042 118.63 4.65221 117.522 4.65221C116.413 4.65221 115.582 3.82042 115.582 2.71136C115.582 1.6023 116.413 0.770508 117.522 0.770508C118.63 0.770508 119.462 1.6023 119.462 2.71136Z" fill="#FFCF2D"/>
<path d="M136 2.71136C136 3.82042 135.169 4.65221 134.06 4.65221C132.951 4.65221 132.12 3.82042 132.12 2.71136C132.12 1.6023 132.951 0.770508 134.06 0.770508C135.076 0.770508 136 1.6023 136 2.71136Z" fill="#FFCF2D"/>
<path d="M3.88044 43.8393C3.88044 44.9483 3.04891 45.7801 1.94022 45.7801C0.831522 45.7801 0 44.9483 0 43.8393C0 42.7302 0.831522 41.8984 1.94022 41.8984C3.04891 41.8984 3.88044 42.8226 3.88044 43.8393Z" fill="#FFCF2D"/>
<path d="M20.4185 43.8393C20.4185 44.9483 19.587 45.7801 18.4783 45.7801C17.3696 45.7801 16.5381 44.9483 16.5381 43.8393C16.5381 42.7302 17.3696 41.8984 18.4783 41.8984C19.4946 41.8984 20.4185 42.8226 20.4185 43.8393Z" fill="#FFCF2D"/>
<path d="M36.8643 43.8393C36.8643 44.9483 36.0328 45.7801 34.9241 45.7801C33.8154 45.7801 32.9839 44.9483 32.9839 43.8393C32.9839 42.7302 33.8154 41.8984 34.9241 41.8984C36.0328 41.8984 36.8643 42.8226 36.8643 43.8393Z" fill="#FFCF2D"/>
<path d="M53.4024 43.8393C53.4024 44.9483 52.5709 45.7801 51.4622 45.7801C50.3535 45.7801 49.522 44.9483 49.522 43.8393C49.522 42.7302 50.3535 41.8984 51.4622 41.8984C52.5709 41.8984 53.4024 42.8226 53.4024 43.8393Z" fill="#FFCF2D"/>
<path d="M69.94 43.8393C69.94 44.9483 69.1085 45.7801 67.9998 45.7801C66.8911 45.7801 66.0596 44.9483 66.0596 43.8393C66.0596 42.7302 66.8911 41.8984 67.9998 41.8984C69.0161 41.8984 69.94 42.8226 69.94 43.8393Z" fill="#FFCF2D"/>
<path d="M86.4781 43.8393C86.4781 44.9483 85.6466 45.7801 84.5379 45.7801C83.4292 45.7801 82.5977 44.9483 82.5977 43.8393C82.5977 42.7302 83.4292 41.8984 84.5379 41.8984C85.6466 41.8984 86.4781 42.8226 86.4781 43.8393Z" fill="#FFCF2D"/>
<path d="M102.924 43.8393C102.924 44.9483 102.092 45.7801 100.984 45.7801C99.875 45.7801 99.0435 44.9483 99.0435 43.8393C99.0435 42.7302 99.875 41.8984 100.984 41.8984C102.092 41.8984 102.924 42.8226 102.924 43.8393Z" fill="#FFCF2D"/>
<path d="M119.462 43.8393C119.462 44.9483 118.63 45.7801 117.522 45.7801C116.413 45.7801 115.582 44.9483 115.582 43.8393C115.582 42.7302 116.413 41.8984 117.522 41.8984C118.63 41.8984 119.462 42.8226 119.462 43.8393Z" fill="#FFCF2D"/>
<path d="M136 43.8393C136 44.9483 135.169 45.7801 134.06 45.7801C132.951 45.7801 132.12 44.9483 132.12 43.8393C132.12 42.7302 132.951 41.8984 134.06 41.8984C135.076 41.8984 136 42.8226 136 43.8393Z" fill="#FFCF2D"/>
<path d="M3.88043 57.6098C3.88043 58.7189 3.04891 59.5506 1.94022 59.5506C0.831522 59.5506 0 58.7189 0 57.6098C0 56.5007 0.831522 55.6689 1.94022 55.6689C3.04891 55.6689 3.88043 56.5007 3.88043 57.6098Z" fill="#FFCF2D"/>
<path d="M20.4185 57.6098C20.4185 58.7189 19.587 59.5506 18.4783 59.5506C17.3696 59.5506 16.5381 58.7189 16.5381 57.6098C16.5381 56.5007 17.3696 55.6689 18.4783 55.6689C19.4946 55.6689 20.4185 56.5007 20.4185 57.6098Z" fill="#FFCF2D"/>
<path d="M36.8643 57.6098C36.8643 58.7189 36.0328 59.5506 34.9241 59.5506C33.8154 59.5506 32.9839 58.7189 32.9839 57.6098C32.9839 56.5007 33.8154 55.6689 34.9241 55.6689C36.0328 55.6689 36.8643 56.5007 36.8643 57.6098Z" fill="#FFCF2D"/>
<path d="M51.4622 59.5506C52.5337 59.5506 53.4024 58.6817 53.4024 57.6098C53.4024 56.5379 52.5337 55.6689 51.4622 55.6689C50.3906 55.6689 49.522 56.5379 49.522 57.6098C49.522 58.6817 50.3906 59.5506 51.4622 59.5506Z" fill="#FFCF2D"/>
<path d="M69.94 57.6098C69.94 58.7189 69.1085 59.5506 67.9998 59.5506C66.8911 59.5506 66.0596 58.7189 66.0596 57.6098C66.0596 56.5007 66.8911 55.6689 67.9998 55.6689C69.0161 55.6689 69.94 56.5007 69.94 57.6098Z" fill="#FFCF2D"/>
<path d="M86.4781 57.6098C86.4781 58.7189 85.6466 59.5506 84.5379 59.5506C83.4292 59.5506 82.5977 58.7189 82.5977 57.6098C82.5977 56.5007 83.4292 55.6689 84.5379 55.6689C85.6466 55.6689 86.4781 56.5007 86.4781 57.6098Z" fill="#FFCF2D"/>
<path d="M102.924 57.6098C102.924 58.7189 102.092 59.5506 100.984 59.5506C99.875 59.5506 99.0435 58.7189 99.0435 57.6098C99.0435 56.5007 99.875 55.6689 100.984 55.6689C102.092 55.6689 102.924 56.5007 102.924 57.6098Z" fill="#FFCF2D"/>
<path d="M117.522 59.5506C118.593 59.5506 119.462 58.6817 119.462 57.6098C119.462 56.5379 118.593 55.6689 117.522 55.6689C116.45 55.6689 115.582 56.5379 115.582 57.6098C115.582 58.6817 116.45 59.5506 117.522 59.5506Z" fill="#FFCF2D"/>
<path d="M136 57.6098C136 58.7189 135.169 59.5506 134.06 59.5506C132.951 59.5506 132.12 58.7189 132.12 57.6098C132.12 56.5007 132.951 55.6689 134.06 55.6689C135.076 55.6689 136 56.5007 136 57.6098Z" fill="#FFCF2D"/>
<path d="M3.88043 71.3813C3.88043 72.4903 3.04891 73.3221 1.94022 73.3221C0.831522 73.3221 0 72.4903 0 71.3813C0 70.2722 0.831522 69.4404 1.94022 69.4404C3.04891 69.4404 3.88043 70.2722 3.88043 71.3813Z" fill="#FFCF2D"/>
<path d="M20.4185 71.3813C20.4185 72.4903 19.587 73.3221 18.4783 73.3221C17.3696 73.3221 16.5381 72.4903 16.5381 71.3813C16.5381 70.2722 17.3696 69.4404 18.4783 69.4404C19.4946 69.4404 20.4185 70.2722 20.4185 71.3813Z" fill="#FFCF2D"/>
<path d="M36.8643 71.3813C36.8643 72.4903 36.0328 73.3221 34.9241 73.3221C33.8154 73.3221 32.9839 72.4903 32.9839 71.3813C32.9839 70.2722 33.8154 69.4404 34.9241 69.4404C36.0328 69.4404 36.8643 70.2722 36.8643 71.3813Z" fill="#FFCF2D"/>
<path d="M53.4024 71.3813C53.4024 72.4903 52.5709 73.3221 51.4622 73.3221C50.3535 73.3221 49.522 72.4903 49.522 71.3813C49.522 70.2722 50.3535 69.4404 51.4622 69.4404C52.5709 69.4404 53.4024 70.2722 53.4024 71.3813Z" fill="#FFCF2D"/>
<path d="M69.94 71.3813C69.94 72.4903 69.1085 73.3221 67.9998 73.3221C66.8911 73.3221 66.0596 72.4903 66.0596 71.3813C66.0596 70.2722 66.8911 69.4404 67.9998 69.4404C69.0161 69.4404 69.94 70.2722 69.94 71.3813Z" fill="#FFCF2D"/>
<path d="M86.4781 71.3813C86.4781 72.4903 85.6466 73.3221 84.5379 73.3221C83.4292 73.3221 82.5977 72.4903 82.5977 71.3813C82.5977 70.2722 83.4292 69.4404 84.5379 69.4404C85.6466 69.4404 86.4781 70.2722 86.4781 71.3813Z" fill="#FFCF2D"/>
<path d="M102.924 71.3813C102.924 72.4903 102.092 73.3221 100.984 73.3221C99.875 73.3221 99.0435 72.4903 99.0435 71.3813C99.0435 70.2722 99.875 69.4404 100.984 69.4404C102.092 69.4404 102.924 70.2722 102.924 71.3813Z" fill="#FFCF2D"/>
<path d="M119.462 71.3813C119.462 72.4903 118.63 73.3221 117.522 73.3221C116.413 73.3221 115.582 72.4903 115.582 71.3813C115.582 70.2722 116.413 69.4404 117.522 69.4404C118.63 69.4404 119.462 70.2722 119.462 71.3813Z" fill="#FFCF2D"/>
<path d="M136 71.3813C136 72.4903 135.169 73.3221 134.06 73.3221C132.951 73.3221 132.12 72.4903 132.12 71.3813C132.12 70.2722 132.951 69.4404 134.06 69.4404C135.076 69.4404 136 70.2722 136 71.3813Z" fill="#FFCF2D"/>
<path d="M3.88043 85.059C3.88043 86.1681 3.04891 86.9999 1.94022 86.9999C0.831522 86.9999 0 86.1681 0 85.059C0 83.95 0.831522 83.1182 1.94022 83.1182C3.04891 83.1182 3.88043 84.0424 3.88043 85.059Z" fill="#FFCF2D"/>
<path d="M20.4185 85.059C20.4185 86.1681 19.587 86.9999 18.4783 86.9999C17.3696 86.9999 16.5381 86.1681 16.5381 85.059C16.5381 83.95 17.3696 83.1182 18.4783 83.1182C19.4946 83.1182 20.4185 84.0424 20.4185 85.059Z" fill="#FFCF2D"/>
<path d="M36.8643 85.059C36.8643 86.1681 36.0328 86.9999 34.9241 86.9999C33.8154 86.9999 32.9839 86.1681 32.9839 85.059C32.9839 83.95 33.8154 83.1182 34.9241 83.1182C36.0328 83.1182 36.8643 84.0424 36.8643 85.059Z" fill="#FFCF2D"/>
<path d="M53.4024 85.059C53.4024 86.1681 52.5709 86.9999 51.4622 86.9999C50.3535 86.9999 49.522 86.1681 49.522 85.059C49.522 83.95 50.3535 83.1182 51.4622 83.1182C52.5709 83.1182 53.4024 84.0424 53.4024 85.059Z" fill="#FFCF2D"/>
<path d="M69.94 85.059C69.94 86.1681 69.1085 86.9999 67.9998 86.9999C66.8911 86.9999 66.0596 86.1681 66.0596 85.059C66.0596 83.95 66.8911 83.1182 67.9998 83.1182C69.0161 83.1182 69.94 84.0424 69.94 85.059Z" fill="#FFCF2D"/>
<path d="M86.4781 85.059C86.4781 86.1681 85.6466 86.9999 84.5379 86.9999C83.4292 86.9999 82.5977 86.1681 82.5977 85.059C82.5977 83.95 83.4292 83.1182 84.5379 83.1182C85.6466 83.1182 86.4781 84.0424 86.4781 85.059Z" fill="#FFCF2D"/>
<path d="M102.924 85.059C102.924 86.1681 102.092 86.9999 100.984 86.9999C99.875 86.9999 99.0435 86.1681 99.0435 85.059C99.0435 83.95 99.875 83.1182 100.984 83.1182C102.092 83.1182 102.924 84.0424 102.924 85.059Z" fill="#FFCF2D"/>
<path d="M119.462 85.059C119.462 86.1681 118.63 86.9999 117.522 86.9999C116.413 86.9999 115.582 86.1681 115.582 85.059C115.582 83.95 116.413 83.1182 117.522 83.1182C118.63 83.1182 119.462 84.0424 119.462 85.059Z" fill="#FFCF2D"/>
<path d="M136 85.059C136 86.1681 135.169 86.9999 134.06 86.9999C132.951 86.9999 132.12 86.1681 132.12 85.059C132.12 83.95 132.951 83.1182 134.06 83.1182C135.076 83.1182 136 84.0424 136 85.059Z" fill="#FFCF2D"/>
</g>
<defs>
<clipPath id="clip0_2355_2274">
<rect width="136" height="100" fill="white" transform="translate(0 -13)"/>
</clipPath>
</defs>
</svg>
